<?xml version="1.0" standalone="no"?>
<!DOCTYPE svg PUBLIC "-//W3C//DTD SVG 20010904//EN"
 "http://www.w3.org/TR/2001/REC-SVG-20010904/DTD/svg10.dtd">
<svg version="1.0" xmlns="http://www.w3.org/2000/svg"
 width="64.000000pt" height="64.000000pt" viewBox="0 0 64.000000 64.000000"
 preserveAspectRatio="xMidYMid meet">

<g transform="translate(0.000000,64.000000) scale(0.100000,-0.100000)"
fill="#000000" stroke="none">
<path d="M17 602 c-15 -16 -17 -47 -17 -220 0 -243 -7 -232 137 -232 l93 0 0
-35 c0 -30 -3 -35 -24 -35 -13 0 -27 -7 -30 -16 -11 -28 13 -44 63 -44 l46 0
-3 77 c-2 43 -5 84 -7 91 -3 9 -36 12 -120 12 l-115 0 2 188 3 187 275 0 275
0 3 -40 c3 -36 15 -54 35 -55 4 0 7 24 7 53 0 89 9 87 -322 87 -263 0 -286 -1
-301 -18z"/>
<path d="M342 434 c-21 -15 -22 -20 -22 -198 0 -214 1 -216 89 -216 l52 0 -3
38 c-3 37 -3 37 -50 40 l-48 3 0 150 0 149 120 0 120 0 0 -50 c0 -43 3 -50 20
-50 18 0 20 7 20 55 0 87 -13 95 -158 95 -90 0 -123 -4 -140 -16z"/>
<path d="M486 255 c-3 -9 -6 -59 -6 -110 0 -112 8 -125 79 -125 78 0 82 8 79
135 l-3 110 -71 3 c-59 2 -73 0 -78 -13z m124 -101 l0 -85 -47 3 -48 3 -3 83
-3 82 51 0 50 0 0 -86z m-40 -104 c0 -5 -4 -10 -10 -10 -5 0 -10 5 -10 10 0 6
5 10 10 10 6 0 10 -4 10 -10z"/>
</g>
</svg>
